<?xml version="1.0" encoding="iso-8859-1"?>
<!-- Generator: Adobe Illustrator 19.0.0, SVG Export Plug-In . SVG Version: 6.00 Build 0)  -->
<svg version="1.1" id="Capa_1" xmlns="http://www.w3.org/2000/svg" xmlns:xlink="http://www.w3.org/1999/xlink" x="0px" y="0px"
	 viewBox="0 0 490 490" style="enable-background:new 0 0 490 490;" xml:space="preserve">
<g>
	<g>
		<path d="M257.05,115.5c-7.3-6.2-18.7-6.2-26,0L32.35,283c-10.7,10.7-8.4,35.4,13.5,35.4h61.4v150.8c0,11.4,9.4,20.8,20.8,20.8h233
			c11.4,0,20.8-9.4,20.8-19.8V319.4h61.4c17,0,27.4-21.5,12.5-36.4L257.05,115.5z M362.05,277.8c-11.4,0-20.8,9.4-20.8,20.8v150.8
			h-192.4V298.6c0-11.4-9.4-20.8-20.8-20.8h-26l142.5-120.7l143.5,120.7H362.05z"/>
		<path d="M469.25,0H20.85C9.45,0,0.05,9.4,0.05,20.8s9.4,20.8,20.8,20.8h447.3c11.4,0,21.8-9.4,21.8-20.8S480.65,0,469.25,0z"/>
	</g>
</g>
<g>
</g>
<g>
</g>
<g>
</g>
<g>
</g>
<g>
</g>
<g>
</g>
<g>
</g>
<g>
</g>
<g>
</g>
<g>
</g>
<g>
</g>
<g>
</g>
<g>
</g>
<g>
</g>
<g>
</g>
</svg>
